<svg width="64" height="64" viewBox="0 0 64 64" fill="none" xmlns="http://www.w3.org/2000/svg">
<g clip-path="url(#clip0_45_213)">
<rect width="64" height="64" rx="8" fill="#0284C7"/>
<path d="M40 21.3333L34.6667 21.3333L34.6667 10.6666L29.3333 10.6666L29.3333 48L24 48L24 10.6666L18.6667 10.6666L18.6667 48L10.6667 48L10.6667 53.3333L40 53.3333C48.824 53.3333 56 46.1573 56 37.3333C56 28.5093 48.824 21.3333 40 21.3333ZM40 48L34.6667 48L34.6667 26.6666L40 26.6666C45.8827 26.6666 50.6667 31.4506 50.6667 37.3333C50.6667 43.216 45.8827 48 40 48Z" fill="#F5F5F5"/>
</g>
<defs>
<clipPath id="clip0_45_213">
<rect width="64" height="64" rx="8" fill="white"/>
</clipPath>
</defs>
</svg>
